<?xml version="1.0" encoding="UTF-8" standalone="no"?>
<!DOCTYPE svg PUBLIC "-//W3C//DTD SVG 1.1//EN" "http://www.w3.org/Graphics/SVG/1.1/DTD/svg11.dtd">
<svg width="100%" height="100%" viewBox="0 0 851 537" version="1.1" xmlns="http://www.w3.org/2000/svg" xmlns:xlink="http://www.w3.org/1999/xlink" xml:space="preserve" xmlns:serif="http://www.serif.com/" style="fill-rule:evenodd;clip-rule:evenodd;stroke-linejoin:round;stroke-miterlimit:2;">
    <g transform="matrix(1,0,0,1,-273,-81.8)">
        <path d="M732.82,94.79L742.32,94.79L742.32,128.15L759.89,128.15L759.89,137.24L732.82,137.24L732.82,94.79Z" style="fill-rule:nonzero;"/>
    </g>
    <g transform="matrix(1,0,0,1,-273,-81.8)">
        <path d="M771.22,119.36L755.73,94.79L766.79,94.79L775.94,110.1L785.2,94.79L796.26,94.79L780.78,119.42L780.78,137.24L771.22,137.24L771.22,119.36Z" style="fill-rule:nonzero;"/>
    </g>
    <g transform="matrix(1,0,0,1,-273,-81.8)">
        <path d="M795.8,116C795.8,103.69 805.13,94.07 818.1,94.07C827.42,94.07 836.27,99.99 838.72,109.37L828.38,109.37C826.59,105.42 822.28,103.27 818.1,103.27C810.33,103.27 805.37,108.89 805.37,116C805.37,123.11 810.37,128.74 818.1,128.74C822.28,128.74 826.59,126.59 828.38,122.64L838.72,122.64C836.27,132 827.42,138 818.1,138C805.13,138 795.8,128.33 795.8,116Z" style="fill-rule:nonzero;"/>
    </g>
    <g transform="matrix(1,0,0,1,-273,-81.8)">
        <path d="M845.26,94.8L872.16,94.8L872.16,103.88L854.76,103.88L854.76,111.47L868.57,111.47L868.57,120.56L854.76,120.56L854.76,128.15L872.16,128.15L872.16,137.24L845.26,137.24L845.26,94.8ZM859.96,81.8L869.89,81.8L862.41,91.19L855.78,91.19L859.96,81.8Z" style="fill-rule:nonzero;"/>
    </g>
    <g transform="matrix(1,0,0,1,-273,-81.8)">
        <path d="M880.25,94.8L907.15,94.8L907.15,103.88L889.75,103.88L889.75,111.47L903.56,111.47L903.56,120.56L889.75,120.56L889.75,128.15L907.15,128.15L907.15,137.24L880.25,137.24L880.25,94.8Z" style="fill-rule:nonzero;"/>
    </g>
    <g transform="matrix(1,0,0,1,-273,-81.8)">
        <path d="M732.81,159.84L747.28,159.84C758.921,159.84 768.5,169.419 768.5,181.06C768.5,192.701 758.921,202.28 747.28,202.28L732.81,202.28L732.81,159.84ZM747.28,193.55C754.45,193.55 759.28,187.87 759.28,181.06C759.28,174.25 754.44,168.56 747.28,168.56L742.28,168.56L742.28,193.56L747.28,193.55Z" style="fill-rule:nonzero;"/>
    </g>
    <g transform="matrix(1,0,0,1,-273,-81.8)">
        <path d="M775.92,159.84L802.82,159.84L802.82,168.92L785.42,168.92L785.42,176.51L799.23,176.51L799.23,185.6L785.42,185.6L785.42,193.19L802.81,193.19L802.81,202.28L775.92,202.28L775.92,159.84Z" style="fill-rule:nonzero;"/>
    </g>
    <g transform="matrix(1,0,0,1,-273,-81.8)">
        <path d="M841.09,202.28L820.41,176L820.41,202.25L810.9,202.25L810.9,159.84L819.09,159.84L839.71,186L839.71,159.84L849.28,159.84L849.28,202.28L841.09,202.28Z" style="fill-rule:nonzero;"/>
    </g>
    <g transform="matrix(1,0,0,1,-273,-81.8)">
        <rect x="858.77" y="159.84" width="9.5" height="42.44" style="fill-rule:nonzero;"/>
    </g>
    <g transform="matrix(1,0,0,1,-273,-81.8)">
        <path d="M875.27,188.65L884.78,188.65C885.37,192.24 888.3,194.21 892.01,194.21C895.18,194.21 897.51,192.84 897.51,190.44C897.51,188.44 896.02,186.92 891.95,185.84L887.82,184.76C881.07,182.97 876.41,178.66 876.35,172.03C876.29,164.03 882.15,159.12 890.93,159.12C900.2,159.12 906,165.87 906.24,172.39L896.79,172.39C896.149,169.706 893.688,167.825 890.93,167.91C888.19,167.91 885.93,169.1 885.93,171.37C885.93,173.64 887.78,175.08 891.07,175.92L895.92,177.17C902.85,178.97 907.15,183.51 907.15,190.17C907.15,197.41 901.15,203.03 892.03,203.03C881.49,203 875.63,195.76 875.27,188.65Z" style="fill-rule:nonzero;"/>
    </g>
    <g transform="matrix(1,0,0,1,-273,-81.8)">
        <rect x="913.36" y="176.75" width="17.57" height="8.61" style="fill-rule:nonzero;"/>
    </g>
    <g transform="matrix(1,0,0,1,-273,-81.8)">
        <path d="M732.81,224.87L747.28,224.87C758.921,224.87 768.5,234.449 768.5,246.09C768.5,257.731 758.921,267.31 747.28,267.31L732.81,267.31L732.81,224.87ZM747.28,258.58C754.45,258.58 759.28,252.91 759.28,246.09C759.28,239.27 754.44,233.6 747.28,233.6L742.28,233.6L742.28,258.6L747.28,258.58Z" style="fill-rule:nonzero;"/>
    </g>
    <g transform="matrix(1,0,0,1,-273,-81.8)">
        <path d="M775.91,224.88L802.81,224.88L802.81,234L785.42,234L785.42,241.59L799.23,241.59L799.23,250.67L785.42,250.67L785.42,258.27L802.81,258.27L802.81,267.35L775.91,267.35L775.91,224.88Z" style="fill-rule:nonzero;"/>
    </g>
    <g transform="matrix(1,0,0,1,-273,-81.8)">
        <rect x="808.84" y="241.79" width="17.58" height="8.61" style="fill-rule:nonzero;"/>
    </g>
    <g transform="matrix(1,0,0,1,-273,-81.8)">
        <path d="M732.81,289.91L749.55,289.91C757.55,289.91 762.7,295.65 762.7,302.71C762.7,308.2 759.77,311.71 754.39,313.64L769.39,332.35L758,332.35L743.89,314.84L742.34,314.84L742.34,332.35L732.83,332.35L732.81,289.91ZM748.41,306.77C751.22,306.77 753.26,305.16 753.26,302.71C753.26,300.26 751.26,298.64 748.41,298.64L742.32,298.64L742.32,306.77L748.41,306.77Z" style="fill-rule:nonzero;"/>
    </g>
    <g transform="matrix(1,0,0,1,-273,-81.8)">
        <path d="M769.16,311.13C769.16,299.094 779.064,289.19 791.1,289.19C803.136,289.19 813.04,299.094 813.04,311.13C813.04,323.166 803.136,333.07 791.1,333.07C791.097,333.07 791.093,333.07 791.09,333.07C779.07,333.032 769.193,323.15 769.16,311.13ZM803.41,311.13C803.206,304.502 797.697,299.16 791.066,299.16C784.291,299.16 778.716,304.735 778.716,311.51C778.716,318.285 784.291,323.86 791.066,323.86C791.074,323.86 791.082,323.86 791.09,323.86C797.95,323.719 803.493,317.99 803.41,311.13Z" style="fill-rule:nonzero;"/>
    </g>
    <g transform="matrix(1,0,0,1,-273,-81.8)">
        <path d="M819.52,315.56L819.52,289.91L829,289.91L829,315.68C829,320.76 832.23,323.86 837,323.87C841.77,323.88 844.95,320.76 844.95,315.68L844.95,289.91L854.46,289.91L854.46,315.56C854.46,326.14 847.16,333.07 837,333.07C826.84,333.07 819.52,326.14 819.52,315.56Z" style="fill-rule:nonzero;"/>
    </g>
    <g transform="matrix(1,0,0,1,-273,-81.8)">
        <path d="M860.93,311.13C860.93,298.82 870.25,289.19 883.22,289.19C891.83,289.19 900.22,294.19 903.22,302.47L892.25,302.47C890.029,299.814 886.711,298.313 883.25,298.4C875.48,298.4 870.52,304.02 870.52,311.13C870.52,318.24 875.52,323.87 883.37,323.87C889.71,323.87 893.37,320.7 894.37,315.56L882.15,315.56L882.15,306.65L904.21,306.65C906.3,324.65 896.07,333.07 883.34,333.07C870.25,333.07 860.93,323.45 860.93,311.13Z" style="fill-rule:nonzero;"/>
    </g>
    <g transform="matrix(1,0,0,1,-273,-81.8)">
        <path d="M911.6,289.91L938.5,289.91L938.5,299L921.1,299L921.1,306.59L934.91,306.59L934.91,315.68L921.1,315.68L921.1,323.27L938.5,323.27L938.5,332.36L911.6,332.36L911.6,289.91Z" style="fill-rule:nonzero;"/>
    </g>
    <g transform="matrix(1,0,0,1,-273,-81.8)">
        <path d="M956.09,306.17L956.09,332.36L946.58,332.36L946.58,289.91L955.25,289.91L968.52,308.21L981.79,289.91L990.46,289.91L990.46,332.36L980.89,332.36L980.89,306.17L968.52,323.33L956.09,306.17Z" style="fill-rule:nonzero;"/>
    </g>
    <g transform="matrix(1,0,0,1,-273,-81.8)">
        <path d="M997.46,311.13C997.465,299.098 1007.37,289.2 1019.4,289.2C1031.44,289.2 1041.34,299.104 1041.34,311.14C1041.34,323.176 1031.44,333.08 1019.4,333.08C1007.36,333.075 997.46,323.168 997.46,311.13ZM1031.71,311.13C1031.5,304.505 1025.99,299.17 1019.37,299.17C1012.59,299.17 1007.02,304.745 1007.02,311.52C1007.02,318.295 1012.59,323.87 1019.37,323.87C1019.38,323.87 1019.39,323.87 1019.4,323.87C1026.26,323.723 1031.8,317.991 1031.71,311.13Z" style="fill-rule:nonzero;"/>
    </g>
    <g transform="matrix(1,0,0,1,-273,-81.8)">
        <path d="M1078.51,332.36L1057.83,306.11L1057.83,332.36L1048.33,332.36L1048.33,289.92L1056.52,289.92L1077.14,316.1L1077.14,289.92L1086.7,289.92L1086.7,332.36L1078.51,332.36Z" style="fill-rule:nonzero;"/>
    </g>
    <g transform="matrix(1,0,0,1,-273,-81.8)">
        <path d="M1102.93,299L1092.11,299L1092.11,289.92L1123.44,289.92L1123.44,299L1112.44,299L1112.44,332.36L1102.88,332.36L1102.93,299Z" style="fill-rule:nonzero;"/>
    </g>
    <g transform="matrix(1,0,0,1,-273,-81.8)">
        <path d="M762.64,613.88L742.45,588.27L742.45,613.88L733.18,613.88L733.18,572.46L741.18,572.46L761.29,598L761.29,572.46L770.63,572.46L770.63,613.88L762.64,613.88Z" style="fill-rule:nonzero;"/>
    </g>
    <g transform="matrix(1,0,0,1,-273,-81.8)">
        <path d="M779.92,572.46L806.17,572.46L806.17,581.33L789.17,581.33L789.17,588.74L802.65,588.74L802.65,597.61L789.19,597.61L789.19,605L806.19,605L806.19,613.86L779.92,613.86L779.92,572.46Z" style="fill-rule:nonzero;"/>
    </g>
    <g transform="matrix(1,0,0,1,-273,-81.8)">
        <path d="M813.27,597.49L813.27,572.49L822.54,572.49L822.54,597.64C822.54,602.59 825.69,605.64 830.31,605.64C834.93,605.64 838.06,602.64 838.06,597.64L838.06,572.46L847.34,572.46L847.34,597.46C847.34,607.78 840.22,614.55 830.34,614.55C820.46,614.55 813.27,607.81 813.27,597.49Z" style="fill-rule:nonzero;"/>
    </g>
    <g transform="matrix(1,0,0,1,-273,-81.8)">
        <path d="M853.68,593.17C853.68,581.17 862.78,571.76 875.44,571.76C884.54,571.76 893.17,577.54 895.57,586.7L885.47,586.7C883.72,582.85 879.53,580.7 875.47,580.7C867.88,580.7 863.05,586.18 863.05,593.12C863.05,600.06 867.88,605.55 875.47,605.55C879.56,605.55 883.75,603.45 885.47,599.55L895.57,599.55C893.17,608.71 884.57,614.48 875.44,614.48C862.78,614.58 853.68,605.19 853.68,593.17Z" style="fill-rule:nonzero;"/>
    </g>
    <g transform="matrix(1,0,0,1,-273,-81.8)">
        <path d="M902,572.46L911.27,572.46L911.27,588.68L927.95,588.68L927.95,572.46L937.23,572.46L937.23,613.88L927.95,613.88L927.95,597.49L911.23,597.49L911.23,613.88L902,613.88L902,572.46Z" style="fill-rule:nonzero;"/>
    </g>
    <g transform="matrix(1,0,0,1,-273,-81.8)">
        <path d="M959.54,572.47L967.94,572.47L985.67,613.88L976,613.88L972.33,605.13L955.16,605.13L951.49,613.88L941.81,613.88L959.54,572.47ZM953.54,562.55L963.81,558.55L974.08,562.55L974.08,569.43L963.81,565.43L953.54,569.43L953.54,562.55ZM968.94,597.08L963.75,584.6L958.56,597.08L968.94,597.08Z" style="fill-rule:nonzero;"/>
    </g>
    <g transform="matrix(1,0,0,1,-273,-81.8)">
        <path d="M994,581.33L983.43,581.33L983.43,572.47L1014,572.47L1014,581.33L1003.32,581.33L1003.32,613.88L994,613.88L994,581.33Z" style="fill-rule:nonzero;"/>
    </g>
    <g transform="matrix(1,0,0,1,-273,-81.8)">
        <path d="M1019.23,572.47L1045.48,572.47L1045.48,581.33L1028.48,581.33L1028.48,588.74L1042,588.74L1042,597.61L1028.5,597.61L1028.5,605L1045.5,605L1045.5,613.86L1019.25,613.86L1019.23,572.47Z" style="fill-rule:nonzero;"/>
    </g>
    <g transform="matrix(1,0,0,1,-273,-81.8)">
        <path d="M1053.38,572.47L1062.65,572.47L1062.65,605L1079.8,605L1079.8,613.86L1053.38,613.86L1053.38,572.47Z" style="fill-rule:nonzero;"/>
    </g>
    <g transform="matrix(1,0,0,1,-273,-81.8)">
        <path d="M293.89,94.44L347.21,94.44L347.21,281.56L445.79,281.56L445.79,332.56L293.89,332.56L293.89,94.44Z" style="fill-rule:nonzero;"/>
    </g>
    <g transform="matrix(1,0,0,1,-273,-81.8)">
        <path d="M489.39,94.44L570.54,94.44C637.6,94.44 691.93,147.44 691.93,213.44C691.93,279.44 637.6,332.44 570.54,332.44L489.39,332.44L489.39,94.44ZM570.54,283.57C610.78,283.57 637.94,251.71 637.94,213.48C637.94,175.25 610.78,143.4 570.54,143.4L542.7,143.4L542.7,283.57L570.54,283.57Z" style="fill-rule:nonzero;"/>
    </g>
    <g transform="matrix(1,0,0,1,-273,-81.8)">
        <path d="M489.39,376.13L576.57,376.13C621.51,376.13 649.68,408.32 650.35,447.89C651.02,479.08 631.9,502.55 602.35,512.28L691.21,614.28L626.54,614.28L542.71,517L542.71,614.26L489.39,614.26L489.39,376.13ZM570.54,470.7C585.97,470.7 597.37,461.98 597.37,447.89C597.37,433.47 585.97,425.09 570.54,425.09L542.71,425.09L542.71,470.7L570.54,470.7Z" style="fill-rule:nonzero;"/>
    </g>
    <g transform="matrix(1,0,0,1,-273,-81.8)">
        <path d="M273,530.36C273,483.76 305.86,442.86 355.48,442.86C372.24,442.86 385.59,448.1 395.04,455.52L395.04,376.14L445.7,376.14L445.7,614.14L395.08,614.14L395.08,603.45C386.36,611.83 372.28,617.87 355.52,617.87C305.9,617.87 273,577 273,530.36ZM397.87,530.36C397.87,507.9 382.34,488.79 361.59,488.79C339.12,488.79 325.3,507.9 325.3,530.36C325.3,552.82 339.12,571.93 361.59,571.93C382.41,571.93 397.91,552.82 397.91,530.36L397.87,530.36Z" style="fill-rule:nonzero;"/>
    </g>
</svg>
