<?xml version="1.0" encoding="UTF-8" standalone="no"?>
<!DOCTYPE svg PUBLIC "-//W3C//DTD SVG 1.1//EN" "http://www.w3.org/Graphics/SVG/1.1/DTD/svg11.dtd">
<svg width="100%" height="100%" viewBox="0 0 1964 619" version="1.1" xmlns="http://www.w3.org/2000/svg" xmlns:xlink="http://www.w3.org/1999/xlink" xml:space="preserve" xmlns:serif="http://www.serif.com/" style="fill-rule:evenodd;clip-rule:evenodd;stroke-linecap:square;stroke-miterlimit:10;">
    <g id="Layer-1" serif:id="Layer 1" transform="matrix(1,0,0,1,16.5998,0)">
        <g transform="matrix(1,0,0,1,707.75,107.25)">
            <path d="M0,320.25L0,128.5L-0.25,121.75L-0.5,115.5L-1.5,109.5L-2.5,104L-4,98.75L-6,93.75L-8.25,89.5L-9.5,87.25L-11,85.25L-14,81.75L-16,80.25L-17.75,78.75L-19.75,77.25L-24.25,74.75L-29.25,72.75L-34.75,71.25L-37.75,70.75L-44.25,70L-51.25,69.75L-56,69.75L-60.75,70.5L-65,71.25L-69.25,72.75L-73.25,74.25L-77.25,76.25L-80.75,78.5L-84.25,81L-87.5,83.75L-90.5,86.75L-93.25,90L-96,93.5L-98.5,97.25L-100.75,101L-103,105L-105,109.25L-106.75,114L-108.5,119L-111,129L-112,134.25L-112.75,139.5L-113.5,145L-114,150.5L-114.75,161.25L-115,172L-115,320.25L-189.5,320.25L-189.5,7.75L-127,7.75L-121.75,48L-118,42L-113.75,36.5L-109.5,31.25L-104.5,26.5L-99.5,22.25L-94,18.25L-88.5,14.75L-82.5,11.5L-76.5,8.75L-70.25,6.5L-63.75,4.5L-57.25,2.75L-50.5,1.5L-43.75,0.75L-37.25,0.25L-30.5,0L-24.25,0L-18.25,0.5L-12.5,1.25L-7,2L-1.5,3.25L3.75,4.75L9,6.5L13.75,8.25L18.75,10.5L23.25,12.75L31.75,18.25L35.75,21.25L39.75,24.5L46.75,31.5L50,35.25L53.25,39.25L58.75,47.75L61.25,52.25L63.5,57L67.5,67L69,72L70.5,77.25L71.75,82.75L72.75,88.25L73.5,94L74,99.75L74.5,111.75L74.5,320.25L0,320.25Z" style="fill:rgb(2,2,2);fill-rule:nonzero;"/>
        </g>
        <g transform="matrix(1,0,0,1,1040.75,352)">
            <path d="M0,-169.25L-4,-173.25L-6.25,-175L-8.5,-176.5L-11,-178.25L-13.5,-179.5L-16.25,-181L-19.25,-182.25L-22,-183.25L-25.25,-184.25L-31.75,-185.75L-35.25,-186.25L-39,-186.75L-42.75,-187L-50.75,-187L-54.75,-186.75L-58.75,-186L-62.5,-185.5L-66.25,-184.5L-73.25,-182L-79.75,-179L-82.75,-177.25L-85.5,-175.25L-91,-170.75L-93.25,-168.5L-97.75,-163.5L-101.25,-158.25L-104.5,-153L-107.25,-147.5L-109.25,-141.75L-111,-135.75L-112.25,-129.5L-113,-122.75L-113.5,-115.5L18.75,-115.5L18.25,-123.75L17.25,-131.75L16.5,-135.5L15.5,-139.25L13.5,-146.25L12.25,-149.5L10.75,-152.75L7.75,-158.75L6,-161.5L4,-164.25L0,-169.25ZM91.5,-61.5L-113,-61.5L-113,-57L-112.75,-52.75L-112.25,-48.5L-111.75,-44L-111,-40L-110,-35.75L-107.5,-27.75L-106,-24L-104.25,-20.25L-102.5,-16.75L-100.25,-13.25L-98.25,-10L-95.75,-6.75L-93.25,-4L-90.5,-1.25L-86.5,2.5L-81.75,6L-77,9.25L-71.5,12L-68.75,13.25L-65.75,14.5L-62.5,15.5L-56,17L-52.5,17.5L-49,17.75L-45.25,17.75L-37.75,17.5L-31,17L-24.75,16L-21.75,15.25L-19,14.5L-16.5,13.5L-14,12.25L-11.5,11.25L-4.75,6.75L-2.75,5L1.75,0.5L4,-2.25L8,-8.25L9.75,-11.5L12.75,-19L14,-23L84.5,-23L84,-19.5L83.25,-16L82.5,-12.25L81.25,-8.5L80,-4.5L78.5,-0.75L75.25,7L71.5,14.5L67.25,21.5L63,28L58.5,33.75L53.5,39.25L48.25,44.5L42.75,49.25L37,53.5L31,57.5L25,61L18.5,64.25L12,67L5.25,69.5L-1.5,71.5L-8.25,73.25L-15.5,74.5L-22.5,75.75L-29.75,76.5L-37,77L-44.25,77L-51.75,76.75L-59.25,76.25L-66.5,75.5L-73.5,74.25L-80.25,73L-86.75,71L-93,69L-99,66.75L-104.75,64.25L-110.5,61.25L-116,58.25L-121.25,54.75L-126.25,51.25L-131.25,47.5L-136,43.25L-140.5,39L-146,33.5L-151.25,27.5L-156.25,21L-160.75,14.5L-165,7.5L-168.75,0.5L-172.25,-7L-175.5,-14.75L-178.25,-22.5L-180.75,-30.75L-182.75,-39.25L-184.5,-47.75L-185.75,-56.5L-186.75,-65.5L-187.25,-74.75L-187.5,-84L-187.25,-93.25L-186.75,-102.25L-186,-111L-184.75,-119.75L-183.25,-128.25L-181.25,-136.75L-179,-144.75L-176.5,-152.75L-173.5,-160.5L-170.25,-168L-166.75,-175.25L-162.75,-182.25L-158.5,-188.75L-153.75,-195.25L-148.75,-201.5L-143.5,-207.25L-134.5,-215.75L-124.5,-223.25L-119,-226.75L-113.5,-230L-107.75,-233L-101.75,-235.75L-95.5,-238L-89,-240.25L-82.5,-242L-75.5,-243.5L-68.5,-244.75L-61.25,-245.5L-53.75,-246L-46,-246.25L-37.5,-246L-29.25,-245.5L-21,-244.25L-13,-242.75L-5,-240.75L2.5,-238.5L10,-235.5L17.25,-232.25L24.5,-228.5L31.25,-224.25L37.75,-219.75L44,-214.5L49.75,-209L55.5,-203L60.75,-196.5L65.75,-189.5L69.75,-183L73.25,-176.75L76.5,-170.25L79.25,-164L82,-157.5L84.25,-150.75L87.75,-137.75L89,-131L91,-117.5L92,-103.5L92.25,-96.5L92.25,-89.5L92,-82.25L91.75,-74.25L91.5,-61.5Z" style="fill:rgb(2,2,2);fill-rule:nonzero;"/>
        </g>
        <g transform="matrix(1,0,0,1,0,143.75)">
            <rect x="1197.5" y="191.25" width="89.25" height="92.5" style="fill:rgb(2,2,2);"/>
        </g>
        <g transform="matrix(1,0,0,1,1591.5,154.75)">
            <path d="M0,225.25L-4,230L-8.5,234.75L-13.5,239.5L-18.75,244L-24.25,248.25L-30,252.25L-36.25,256L-42.75,259.5L-49.5,262.5L-56.5,265.25L-64,267.75L-71.5,269.75L-79.5,271.5L-87.5,272.75L-95.75,273.5L-104.5,273.75L-113,273.5L-121.5,272.75L-129.75,271.5L-137.75,269.75L-145.5,267.75L-153,265.25L-167,259.25L-173.75,255.75L-180,252L-186,248L-191.75,243.75L-197,239.25L-202,234.75L-206.5,230L-210.75,225.25L-215,219.5L-218.75,213.75L-225.75,201.75L-228.75,195.25L-231.5,188.75L-234,181.75L-238,167.75L-239.75,160.25L-241,152.75L-242.25,145L-243,137.25L-243.75,129.25L-244,121L-244.25,112.5L-243.75,96L-243,88L-242.25,80.25L-241,72.5L-239.75,65L-238,57.5L-236,50.25L-234,43.5L-231.5,36.5L-228.75,30L-225.75,23.5L-218.75,11.5L-215,5.75L-210.75,0L-206.5,-4.75L-202,-9.5L-197,-14L-191.75,-18.5L-186,-22.75L-180,-26.75L-173.75,-30.5L-167,-34L-153,-40L-145.5,-42.5L-137.75,-44.5L-129.75,-46.25L-121.5,-47.5L-113,-48.25L-104.5,-48.5L-95.75,-48.25L-87.5,-47.5L-79.5,-46.25L-71.5,-44.5L-64,-42.5L-56.5,-40L-49.5,-37.25L-42.75,-34.25L-36.25,-30.75L-30,-27L-24.25,-23L-18.75,-18.75L-13.5,-14.25L-8.5,-9.5L-4,-4.75L0,0L2.75,3.75L5,7.25L7.5,11L13.5,23L15.25,27L16.75,31.25L18,35.75L19.25,40L20.5,44.5L21.5,49L22.25,53.5L23.25,62.5L23.5,67L-48.75,67L-49,63L-49.5,59L-50.5,55L-51.5,51.5L-52.75,48L-55.75,41.5L-57.5,38.5L-59.25,36L-61,33.75L-65.5,29.25L-67.75,27.25L-70.25,25.25L-73,23.5L-79,20.5L-82,19.25L-85.5,18L-92.5,16.5L-96.5,16L-100.25,15.5L-108.25,15.5L-111.75,16L-115,16.25L-118.5,17L-121.75,17.75L-127.75,19.75L-133.25,22.25L-135.75,23.75L-140.75,27L-145,30.5L-149,34.5L-152.25,38.25L-155,42.25L-157.5,46.5L-159.75,50.75L-161.75,55.5L-163.25,60L-164.75,65L-166,70L-167,75L-168.5,85.5L-169,91L-169.5,101.75L-169.75,112.5L-169.5,123.5L-169,134.25L-168.5,139.5L-167,150L-166,155L-164.75,160L-161.75,169.5L-159.75,174L-157.5,178.25L-155,182.5L-152.25,186.5L-149,190.25L-145,194L-140.75,197.75L-135.75,201L-133.25,202.5L-130.5,204L-127.75,205.25L-121.75,207.25L-118.5,208.25L-115,208.75L-111.75,209.25L-108.25,209.5L-104.5,209.75L-100.25,209.5L-96.5,209.25L-92.5,208.75L-89,208L-82,206L-79,204.75L-73,201.75L-70.25,200L-67.75,198L-65.5,196L-61,191.5L-59.25,189.25L-57.5,186.75L-55.75,183.75L-52.75,177.25L-51.5,173.75L-49.5,166.25L-49,162.25L-48.75,158.25L23.5,158.25L23.25,162.75L22.25,171.75L21.5,176.25L20.5,180.75L19.25,185.25L18,189.5L16.75,194L15.25,198L13.5,202.25L7.5,214.25L5,218L2.75,221.5L0,225.25Z" style="fill:rgb(2,2,2);fill-rule:nonzero;"/>
        </g>
        <g transform="matrix(1,0,0,1,1686.25,427.5)">
            <path d="M0,-427.5L0,0L73.5,0L73.5,-162.25L73.75,-169.5L74.5,-176.75L75.5,-184.25L77.25,-191.5L79.25,-198.75L81.75,-206L84.75,-212.75L86.5,-216L88.5,-219L90.5,-222.25L92.5,-225L94.75,-228L97,-230.5L99.75,-233L102.25,-235.5L105,-237.5L108,-239.5L111,-241.25L114.25,-243L117.5,-244.25L121,-245.5L128.5,-247L132.25,-247.5L136.25,-247.5L143.25,-247.25L149.75,-246.5L155.5,-245.25L158,-244.5L163,-242.5L167.5,-240L169.5,-238.75L173,-235.75L174.75,-234L176.25,-232.25L178.75,-228.25L181.25,-223.75L183,-219.25L184.5,-214L185.5,-208.5L186.25,-202.75L186.75,-196.5L187,-190L187,0L260.25,0L260.25,-211.25L259.75,-217.25L259.25,-222.75L258.5,-228.5L257.5,-233.75L256.25,-239.25L255,-244.25L253.25,-249.5L251.5,-254.25L249.5,-259L247.25,-263.75L244.75,-268.25L242.25,-272.5L236.25,-280.5L229.75,-288L222.25,-294.5L218.25,-297.5L214.25,-300.25L205.25,-305.25L195.75,-309.25L190.75,-311L185.5,-312.25L180,-313.5L174.5,-314.5L163,-315.5L151,-315.5L145,-315L139,-314.25L133,-313L127,-311.5L121.25,-309.75L115.5,-307.75L110,-305.25L104.5,-302.5L99.25,-299.5L94.25,-296.25L89.5,-292.75L85,-288.75L80.75,-284.5L77,-280L73.5,-275.25L73.5,-427.5L0,-427.5Z" style="fill:rgb(2,2,2);fill-rule:nonzero;"/>
        </g>
        <g transform="matrix(1,0,0,1,27.7497,613.25)">
            <path d="M3.001,-75.5L-27.75,-75.5L-27.75,0L-22.25,0L-22.25,-32.25L4.251,-32.25L19,0L25,0L9.751,-33.5L13.001,-34.75L16.25,-36.5L18.751,-38.5L21.001,-41L23,-43.75L24.251,-46.75L25,-50.25L25.501,-53.75L25.25,-56.25L25,-58.5L24.501,-60.75L23.75,-62.75L22.75,-64.75L21.75,-66.5L20.25,-68L18.751,-69.5L17.25,-71L15.251,-72.25L13.251,-73.25L10.751,-74L8.501,-74.75L5.75,-75.25L3.001,-75.5ZM-22.25,-70.25L0,-70.25L4.251,-70L6.501,-69.75L8.25,-69.25L10,-68.75L11.75,-68L13.251,-67L14.5,-66L15.75,-65L16.75,-63.75L17.501,-62.5L18.25,-61L19,-59.25L19.25,-57.75L19.5,-55.75L19.751,-53.75L19.5,-51.75L19,-48.25L18.25,-46.75L17.501,-45.25L16.75,-43.75L15.75,-42.5L14.5,-41.5L13.251,-40.5L11.75,-39.75L8.25,-38.25L6.501,-38L4.251,-37.5L0,-37.25L-22.25,-37.25L-22.25,-70.25Z" style="fill-rule:nonzero;"/>
        </g>
        <g transform="matrix(1,0,0,1,84.5,598)">
            <path d="M0,-66.5L-1.75,-69.5L15,-81.75L18,-77.25L0,-66.5ZM-15.5,15.25L-15.5,-60.25L32.75,-60.25L32.75,-55L-10,-55L-10,-27.25L27.75,-27.25L27.75,-22L-10,-22L-10,10L32.75,10L32.75,15.25L-15.5,15.25Z" style="fill-rule:nonzero;"/>
        </g>
        <g transform="matrix(1,0,0,1,159.75,608)">
            <path d="M0,-65L-20.75,-65L-20.75,-31L0,-31L4,-31.25L7.75,-32L9.5,-32.75L11,-33.25L12.5,-34.25L13.75,-35L16.25,-37.5L17,-38.75L18,-40.5L18.5,-42L19,-44L19.5,-48L19.25,-50.25L19,-52.25L18,-55.75L17,-57.25L16.25,-58.5L13.75,-61L12.5,-62L9.5,-63.5L7.75,-64L4,-64.75L0,-65ZM2.75,-25.75L-20.75,-25.75L-20.75,5.25L-26.25,5.25L-26.25,-70.25L2.75,-70.25L5.25,-70L7.75,-69.5L10,-69L12.25,-68.25L16.25,-66.25L18,-65L19.5,-63.5L21,-61.75L22.25,-60L23.25,-58L24,-55.75L24.75,-53.25L25,-50.75L25.25,-48L25,-45.25L24.75,-42.75L24,-40.25L23.25,-38L22.25,-36L21,-34.25L18,-31.25L16.25,-30L14.25,-28.75L12.25,-27.75L10,-27L7.75,-26.5L5.25,-26L2.75,-25.75Z" style="fill-rule:nonzero;"/>
        </g>
        <g transform="matrix(1,0,0,1,223.75,537.75)">
            <path d="M0,77L-3.25,76.75L-6.5,76.25L-9.25,75.75L-12,74.75L-14.25,73.5L-16.5,72L-18.5,70.5L-20.25,68.5L-21.75,66.5L-23.25,64.25L-24.25,62L-25.25,59.25L-26,56.75L-26.5,53.75L-26.75,50.75L-26.75,0L-21.25,0L-21.25,50.25L-21,52.75L-20,57.25L-18.5,61.25L-17.5,63L-16.25,64.75L-14.75,66.25L-13.25,67.5L-11.5,68.75L-9.75,69.75L-7.5,70.5L-5.25,71L-2.75,71.5L2.5,71.5L7.5,70.5L9.5,69.75L11.5,68.75L13.25,67.5L14.75,66.25L16.25,64.75L17.25,63L18.5,61.25L20,57.25L21,52.75L21.25,50.25L21.25,0L26.75,0L26.75,50.75L25.75,56.75L25.25,59.25L24.25,62L21.75,66.5L20.25,68.5L18.5,70.5L16.5,72L14.25,73.5L11.75,74.75L9.25,75.75L3.25,76.75L0,77Z" style="fill-rule:nonzero;"/>
        </g>
        <g transform="matrix(1,0,0,1,297.75,574.5)">
            <path d="M0,2L-21,2L-21,33.5L4,33.5L7.75,33L11,32L12.75,31.25L14,30.5L15.5,29.5L16.75,28.25L17.75,27L18.75,25.5L19.25,23.75L20,22L20.25,19.75L20.25,15.25L20,13.25L19.5,11.5L18.75,9.75L15.75,6L14.25,5L13,4.25L11.25,3.75L8,2.75L4,2.25L0,2ZM3.5,-31.5L-21,-31.5L-21,-3.25L0,-3.25L4,-3.5L7.5,-4L10.5,-4.75L12,-5.25L13.25,-6L14.5,-7L15.5,-8L16.5,-9.25L17.25,-10.5L17.75,-12L18.25,-13.75L18.75,-17.75L18.5,-19.75L18.25,-21.5L17.75,-23L17,-24.5L16.25,-25.75L15.25,-26.75L12.75,-28.75L11.5,-29.5L10,-30L6.75,-31L3.5,-31.5ZM19,33.5L17,35L14.75,36.25L12.5,37L10,37.75L7.75,38.25L5.25,38.5L0,38.75L-26.75,38.75L-26.75,-36.75L4.5,-36.75L8.75,-36L10.75,-35.5L12.75,-34.75L14.75,-33.75L16.5,-32.75L18.25,-31.5L19.75,-30L22.25,-26.5L23.75,-22.5L24.25,-20.5L24.25,-15.25L23.75,-12.5L22.75,-9.75L21.5,-7.25L19.75,-5L17.75,-3.25L15.25,-1.75L12.25,-0.5L14,0L15.5,0.5L18.25,2L20.75,4L22.75,6.25L24,8.75L25.25,11.75L25.75,14.75L26,17.75L26,20L25,24.5L23.5,28.5L22.25,30.25L20.75,32L19,33.5Z" style="fill-rule:nonzero;"/>
        </g>
        <g transform="matrix(1,0,0,1,340.5,537.75)">
            <path d="M0,75.5L0,0L5.5,0L5.5,70.25L44.75,70.25L44.75,75.5L0,75.5Z" style="fill-rule:nonzero;"/>
        </g>
        <g transform="matrix(1,0,0,1,0,532.25)">
            <rect x="397.5" y="5.5" width="5.75" height="75.5"/>
        </g>
        <g transform="matrix(1,0,0,1,445.75,618.5)">
            <path d="M0,-82L-3.001,-81.5L-5.5,-81L-10.5,-79L-12.5,-77.5L-14.75,-76L-16.501,-74.5L-18,-73L-19.25,-71.249L-20.5,-69.5L-21.5,-67.75L-23.251,-63.75L-24.5,-59.75L-25.25,-55.75L-25.75,-51.5L-26,-47.25L-26,-39L-25.75,-34.75L-25.25,-30.5L-24.5,-26.249L-23.251,-22.25L-21.5,-18.5L-20.5,-16.5L-18,-13L-16.501,-11.5L-14.75,-10L-12.5,-8.5L-10.5,-7L-8,-5.999L-5.5,-5L-3.001,-4.5L0,-4L3,-3.749L5.25,-4L9.75,-4.5L11.75,-5.25L13.75,-5.999L15.5,-6.75L17.249,-7.75L19,-8.75L26,0.25L30,-2.75L22.75,-12L24.25,-13.5L25.5,-15.25L27.5,-18.75L29.25,-22.5L30.25,-26.5L31,-30.749L31.5,-35L31.75,-39L31.75,-47.25L31.5,-51.5L31,-55.75L30.25,-59.75L29,-63.75L27.5,-67.75L26.249,-69.5L25.25,-71.249L23.75,-73L22.25,-74.5L20.5,-76L18.5,-77.5L16.25,-79L14,-80L11.5,-81L8.75,-81.5L5.999,-82L3,-82.25L0,-82ZM3,-9.25L-1.5,-9.75L-5.5,-10.75L-7.501,-11.5L-9.25,-12.5L-11,-13.75L-13.75,-16.5L-15,-18L-16,-19.499L-16.75,-21.25L-18.25,-24.75L-19,-28.499L-19.75,-32.25L-20,-36L-20.25,-43L-20,-50.25L-19.75,-54L-19,-57.749L-18.25,-61.25L-16,-66.5L-15,-68L-12.5,-71L-11,-72.25L-9.25,-73.499L-7.501,-74.5L-5.5,-75.25L-3.5,-76L-1.5,-76.5L0.75,-76.75L5,-76.75L7.25,-76.5L9.25,-76L13.25,-74.5L14.999,-73.499L16.75,-72.25L18.25,-71L19.499,-69.5L20.75,-68L21.749,-66.5L22.75,-64.75L23.999,-61.25L25,-57.749L25.5,-54L26,-50.25L26,-36.25L25,-29.25L24.25,-25.75L23,-22.25L21.5,-19.25L20.5,-17.75L19.25,-16.25L8.249,-30.5L4.25,-27.5L15.5,-13L12.749,-11.5L9.75,-10.25L6.25,-9.5L3,-9.25Z" style="fill-rule:nonzero;"/>
        </g>
        <g transform="matrix(1,0,0,1,519.5,537.75)">
            <path d="M0,77L-3.25,76.75L-9.25,75.75L-11.75,74.75L-14.25,73.5L-16.5,72L-18.25,70.5L-21.75,66.5L-24.25,62L-25,59.25L-25.75,56.75L-26.25,53.75L-26.75,47.75L-26.75,0L-21.25,0L-21.25,48L-21,50.25L-20.75,52.75L-20.5,55L-20,57.25L-19.25,59.25L-18.25,61.25L-17.25,63L-16,64.75L-14.75,66.25L-13.25,67.5L-11.5,68.75L-9.5,69.75L-7.5,70.5L-5,71L-2.75,71.5L2.75,71.5L5.25,71L7.5,70.5L9.75,69.75L11.5,68.75L13.25,67.5L14.75,66.25L16.25,64.75L17.5,63L18.5,61.25L19.5,59.25L20,57.25L20.75,55L21,52.75L21.25,50.25L21.25,0L27,0L27,47.75L26.5,53.75L26,56.75L25.25,59.25L24.25,62L23.25,64.25L21.75,66.5L20.25,68.5L18.5,70.5L16.5,72L14.25,73.5L12,74.75L9.25,75.75L6.5,76.25L3.25,76.75L0,77Z" style="fill-rule:nonzero;"/>
        </g>
        <g transform="matrix(1,0,0,1,567,537.75)">
            <path d="M0,75.5L0,0L48.25,0L48.25,5.25L5.75,5.25L5.75,33L43.25,33L43.25,38.25L5.75,38.25L5.75,70.25L48.25,70.25L48.25,75.5L0,75.5Z" style="fill-rule:nonzero;"/>
        </g>
        <g transform="matrix(1,0,0,1,653.5,537.75)">
            <path d="M0,75.5L0,0L48.25,0L48.25,5.25L5.5,5.25L5.5,33L43.25,33L43.25,38.25L5.5,38.25L5.5,70.25L48.25,70.25L48.25,75.5L0,75.5Z" style="fill-rule:nonzero;"/>
        </g>
        <g transform="matrix(1,0,0,1,737.5,608)">
            <path d="M0,-65L0,5.25L-5.5,5.25L-5.5,-65L-29.5,-65L-29.5,-70.25L24.25,-70.25L24.25,-65L0,-65Z" style="fill-rule:nonzero;"/>
        </g>
        <g transform="matrix(1,0,0,1,816.25,536.25)">
            <path d="M0,78.5L-2.5,78.25L-8,77.25L-10.5,76.25L-13.25,75L-15.5,73.75L-17.75,72L-19.75,70.25L-21.25,68.5L-22.5,67L-23.75,65.25L-24.5,63.5L-26.25,59.5L-27.25,55.75L-28,51.5L-28.5,47.5L-28.5,43.25L-28.75,39.25L-28.5,35L-28.5,31L-28,26.75L-27.25,22.75L-26.25,18.75L-24.5,15L-23.75,13.25L-21.25,9.75L-19.75,8.25L-17.75,6.5L-15.5,4.75L-13.25,3.5L-10.5,2.25L-8,1.25L-2.5,0.25L0,0L3,0.25L5.5,0.5L10.5,2L12.75,3L15,4.25L17,5.5L18.75,7L20.5,8.75L22,10.75L24.5,14.75L25.25,17.25L26,19.5L26.75,22L27,24.5L21.25,24.5L21,22.5L20.5,20.5L20,18.75L19.25,16.75L18.25,15.25L17.25,13.5L16,12.25L14.75,10.75L13.25,9.75L11.75,8.5L6.5,6.25L4.5,5.75L2.25,5.5L-2.25,5.5L-4.75,6L-6.75,6.5L-10.75,8L-14.25,10.5L-17,13.25L-18,14.75L-19.75,18L-21,21.25L-22,24.75L-22.5,28.5L-22.75,32L-23,39.25L-22.75,46.25L-22.5,50L-21,57L-19.75,60.5L-18,63.75L-16.75,65L-15.75,66.5L-14,68L-10.5,70.5L-6.5,72L-4.5,72.5L0,73L4.5,72.5L6.5,72.25L10,70.75L11.75,69.75L13.25,68.75L14.75,67.5L16,66.25L17.25,64.75L18.25,63.25L19.25,61.5L20,59.75L20.5,58L21,56L21.25,54L27,54L26.75,56.5L26,59L24.5,63.5L23.25,65.75L22,67.75L20.5,69.75L18.75,71.5L17,73L15,74.25L12.75,75.5L10.5,76.5L5.5,78L3,78.25L0,78.5Z" style="fill-rule:nonzero;"/>
        </g>
        <g transform="matrix(1,0,0,1,877.25,605.75)">
            <path d="M0,-60.5L-16,-17.75L16.5,-17.75L0,-60.5ZM26.25,7.5L18.5,-12.5L-18,-12.5L-25.5,7.5L-31.25,7.5L-2.5,-68L2.75,-68L31.75,7.5L26.25,7.5Z" style="fill-rule:nonzero;"/>
        </g>
        <g transform="matrix(1,0,0,1,969.75,537.75)">
            <path d="M0,75.5L-43.75,8.5L-43.75,75.5L-49.25,75.5L-49.25,0L-43,0L0.75,66.75L0.75,0L6.25,0L6.25,75.5L0,75.5Z" style="fill-rule:nonzero;"/>
        </g>
        <g transform="matrix(1,0,0,1,1017.5,608)">
            <path d="M0,-65L0,5.25L-5.5,5.25L-5.5,-65L-29.5,-65L-29.5,-70.25L24.25,-70.25L24.25,-65L0,-65Z" style="fill-rule:nonzero;"/>
        </g>
        <g transform="matrix(1,0,0,1,1090,603.5)">
            <path d="M0,-56L-1.75,-57.25L-3.25,-58.5L-5,-59.5L-9,-61L-11,-61.5L-13.25,-61.75L-17.5,-61.75L-19.75,-61.5L-21.75,-61L-25.75,-59.5L-27.5,-58.5L-29.25,-57.25L-30.75,-56L-33.25,-53L-34.25,-51.5L-35.25,-49.75L-36.5,-46.25L-37.5,-42.75L-38.5,-35.25L-38.5,-21L-37.5,-13.5L-36.5,-9.75L-35.25,-6.25L-34.25,-4.5L-33.25,-3L-32,-1.5L-29.25,1.25L-27.5,2.5L-25.75,3.5L-23.75,4.25L-19.75,5.25L-17.5,5.5L-15.5,5.75L-11,5.25L-7,4.25L-5,3.5L-3.25,2.5L-1.75,1.25L0,-0.25L1.25,-1.5L2.5,-3L3.5,-4.5L5.75,-9.75L7.25,-17.25L7.5,-21L7.75,-28L7.5,-35.25L7.25,-39L6.5,-42.75L5.75,-46.25L3.5,-51.5L2.5,-53L0,-56ZM4,3.5L2.25,5L0,6.5L-2,8L-7,10L-9.5,10.5L-12.5,11L-15.5,11.25L-18.5,11L-24,10L-26.5,9L-28.75,8L-31,6.5L-33,5L-34.75,3.5L-36.25,2L-37.75,0.25L-38.75,-1.5L-40,-3.5L-41.5,-7.25L-42.75,-11.25L-43.5,-15.5L-44,-19.75L-44.25,-24L-44.25,-32.25L-44,-36.5L-43.5,-40.75L-42.75,-44.75L-41.5,-48.75L-40,-52.75L-38.75,-54.5L-37.75,-56.25L-36.25,-58L-34.75,-59.5L-33,-61L-31,-62.5L-28.75,-64L-26.5,-65L-24,-66L-18.5,-67L-15.5,-67.25L-12.5,-67L-9.5,-66.5L-7,-66L-2,-64L0,-62.5L2.25,-61L4,-59.5L5.5,-58L8,-54.5L9,-52.75L10.75,-48.75L12,-44.75L12.75,-40.75L13.25,-36.5L13.5,-32.25L13.5,-24L13.25,-19.75L12.75,-15.5L12,-11.25L10.75,-7.25L9,-3.5L8,-1.5L5.5,2L4,3.5Z" style="fill-rule:nonzero;"/>
        </g>
        <g transform="matrix(1,0,0,1,1169.5,537.75)">
            <path d="M0,75.5L-44,8.5L-44,75.5L-49.5,75.5L-49.5,0L-43.25,0L0.75,66.75L0.75,0L6.25,0L6.25,75.5L0,75.5Z" style="fill-rule:nonzero;"/>
        </g>
        <g transform="matrix(1,0,0,1,1259.5,602.25)">
            <path d="M0,-53.5L-1.5,-54.75L-3,-55.75L-4.75,-56.75L-6.75,-57.75L-10.75,-58.75L-12.75,-59L-34.5,-59L-34.5,5.5L-12.75,5.5L-10.75,5.25L-8.75,4.75L-4.75,3.25L-3,2.25L-1.5,1.25L0,0L1.25,-1.5L2.5,-2.75L4.25,-5.75L5.5,-9.25L6.5,-12.5L7,-16.25L7.5,-19.75L7.75,-26.75L7.5,-34L6.5,-41L5.5,-44.5L4.25,-47.75L2.5,-50.75L1.25,-52.25L0,-53.5ZM4.25,3.5L2.25,5L0.5,6.5L-4,9L-6.5,9.75L-9.25,10.5L-12,10.75L-15,11L-40,11L-40,-64.5L-12,-64.5L-9.25,-64L-6.5,-63.25L-4,-62.5L-1.75,-61.5L0.5,-60L2.25,-58.75L4.25,-57L5.5,-55.5L7,-54L9,-50.5L10.75,-46.75L11.75,-43L12.5,-39L13,-35L13.25,-30.75L13.25,-22.75L13,-18.75L12.5,-14.75L11.75,-10.75L10.75,-6.75L9,-3L7,0.5L5.5,2L4.25,3.5Z" style="fill-rule:nonzero;"/>
        </g>
        <g transform="matrix(1,0,0,1,1289.5,537.75)">
            <path d="M0,75.5L0,0L48.25,0L48.25,5.25L5.5,5.25L5.5,33L43.25,33L43.25,38.25L5.5,38.25L5.5,70.25L48.25,70.25L48.25,75.5L0,75.5Z" style="fill-rule:nonzero;"/>
        </g>
        <g transform="matrix(1,0,0,1,1416.25,537)">
            <path d="M0,73.75L-36.25,14.5L-36.25,73.75L-45.25,73.75L-45.25,0L-34.75,0L1.25,59.5L1.25,0L10.25,0L10.25,73.75L0,73.75Z" style="fill-rule:nonzero;"/>
        </g>
        <g transform="matrix(1,0,0,1,1447.5,537)">
            <path d="M0,73.75L0,0L49.25,0L49.25,8.5L9.25,8.5L9.25,31L44.25,31L44.25,39.75L9.25,39.75L9.25,65.25L49.25,65.25L49.25,73.75L0,73.75Z" style="fill-rule:nonzero;"/>
        </g>
        <g transform="matrix(1,0,0,1,1537.25,537)">
            <path d="M0,75.25L-3,75L-5.75,74.75L-8.5,74.25L-11.25,73.25L-13.5,72.25L-15.75,71L-19.75,68L-21.25,66L-22.75,63.75L-24,61.5L-25,59L-25.75,56.25L-26.5,53.25L-27,46.75L-27,0L-17.75,0L-17.75,47L-17.5,51.25L-16.75,55L-16,56.75L-15.5,58.25L-13.5,61.25L-12.5,62.5L-11.25,63.5L-9.75,64.5L-8,65.25L-4.5,66.25L-2.25,66.5L2.25,66.5L4.5,66.25L6.5,65.75L8.25,65.25L9.75,64.5L11.25,63.5L12.5,62.5L13.75,61.25L14.75,59.75L16.25,56.75L16.75,55L17.5,51.25L17.75,47L17.75,0L27,0L27,50L26.5,53.25L26,56.25L25,59L24,61.5L21.5,66L19.75,68L18,69.5L15.75,71L13.75,72.25L8.75,74.25L6,74.75L0,75.25Z" style="fill-rule:nonzero;"/>
        </g>
        <g transform="matrix(1,0,0,1,1627.25,543.5)">
            <path d="M0,61L-4,64L-6.25,65.25L-8.75,66.5L-11.25,67.5L-14,68.25L-17,68.75L-22.75,68.75L-25.5,68.25L-28,67.75L-30.75,66.75L-33.25,65.75L-37.75,62.75L-40,61L-41.25,59.5L-42.5,57.75L-44.75,54.5L-46.25,51L-47.5,47.25L-48.25,43.25L-48.75,39L-49.25,30.5L-48.75,22L-48.25,17.75L-47.5,13.75L-46.25,10L-44.75,6.5L-42.5,3.25L-41.25,1.5L-40,0L-37.75,-1.75L-33.25,-4.75L-30.75,-5.75L-28,-6.75L-25.5,-7.25L-22.75,-7.75L-17,-7.75L-14,-7.25L-11.25,-6.5L-8.75,-5.75L-6.25,-4.5L-4,-3.25L-2,-1.75L-0.25,-0.25L2.75,3.25L3.75,5.25L5,7.25L6.5,11.75L7,16.75L-2.5,16.75L-2.75,13.75L-3.75,11L-5,8.5L-6.5,6.25L-9,4.25L-10.5,3.25L-14,1.75L-15.75,1.25L-17.75,1L-21.75,1L-23.5,1.25L-25.5,1.75L-27.25,2.25L-28.75,3.25L-30.5,4.25L-32,5.25L-34.5,7.75L-35.25,9L-36.75,11.75L-38,14.75L-38.75,18L-39.25,21.25L-39.5,24.5L-39.5,36.5L-39.25,39.75L-38.75,43L-38,46.25L-36.75,49.25L-35.25,52L-34.5,53.25L-32,55.75L-30.5,56.75L-28.75,57.75L-27.25,58.5L-25.5,59.25L-23.5,59.75L-21.75,60L-17.75,60L-15.75,59.75L-14,59.25L-10.5,57.75L-9,56.75L-7.75,55.5L-6.5,54.5L-4.75,52.25L-3.5,49.5L-2.75,46.75L-2.5,43.75L7.25,43.75L7,46.25L6.5,48.75L5,53.25L4,55.5L2.75,57.25L1.5,59.25L0,61Z" style="fill-rule:nonzero;"/>
        </g>
        <g transform="matrix(1,0,0,1,1693.75,537)">
            <path d="M0,73.75L0,39.75L-35.5,39.75L-35.5,73.75L-44.75,73.75L-44.75,0L-35.5,0L-35.5,30.75L0,30.75L0,0L9.25,0L9.25,73.75L0,73.75Z" style="fill-rule:nonzero;"/>
        </g>
        <g transform="matrix(1,0,0,1,1745.25,578.75)">
            <path d="M0,-32.5L-13,5.75L13.25,5.75L0,-32.5ZM11,-46.25L-0.25,-58.25L-11.5,-46.25L-16.25,-51L-3,-64.5L2.5,-64.5L15.75,-51L11,-46.25ZM22.25,32L16.25,14.5L-15.75,14.5L-21.75,32L-31,32L-5,-41.75L5.75,-41.75L31.75,32L22.25,32Z" style="fill-rule:nonzero;"/>
        </g>
        <g transform="matrix(1,0,0,1,1803.25,602)">
            <path d="M0,-56.25L0,8.75L-9.25,8.75L-9.25,-56.25L-31.25,-56.25L-31.25,-65L22,-65L22,-56.25L0,-56.25Z" style="fill-rule:nonzero;"/>
        </g>
        <g transform="matrix(1,0,0,1,1837,537)">
            <path d="M0,73.75L0,0L49.5,0L49.5,8.5L9.25,8.5L9.25,31L44.5,31L44.5,39.75L9.25,39.75L9.25,65.25L49.5,65.25L49.5,73.75L0,73.75Z" style="fill-rule:nonzero;"/>
        </g>
        <g transform="matrix(1,0,0,1,1902,610.75)">
            <path d="M0,-73.75L0,0L44.751,0L44.751,-8.5L9.25,-8.5L9.25,-73.75L0,-73.75Z" style="fill-rule:nonzero;"/>
        </g>
        <g transform="matrix(-0.216339,0.976318,0.976318,0.216339,416.551,336.021)">
            <path d="M-190.458,-152.875L122.708,-152.875" style="fill:none;fill-rule:nonzero;stroke:black;stroke-width:4px;"/>
        </g>
        <g transform="matrix(-0.216339,0.976318,0.976318,0.216339,517.551,336.021)">
            <path d="M-190.458,-152.875L122.708,-152.875" style="fill:none;fill-rule:nonzero;stroke:black;stroke-width:4px;"/>
        </g>
        <g transform="matrix(-0.215578,0.976487,0.976487,0.215578,503.255,335.788)">
            <path d="M-190.306,-152.875L122.806,-152.875" style="fill:none;fill-rule:nonzero;stroke:black;stroke-width:4px;"/>
        </g>
        <g transform="matrix(-0.215578,0.976487,0.976487,0.215578,488.755,335.788)">
            <path d="M-190.306,-152.875L122.806,-152.875" style="fill:none;fill-rule:nonzero;stroke:black;stroke-width:4px;"/>
        </g>
        <g transform="matrix(-0.216339,0.976318,0.976318,0.216339,474.301,336.021)">
            <path d="M-190.458,-152.875L122.708,-152.875" style="fill:none;fill-rule:nonzero;stroke:black;stroke-width:4px;"/>
        </g>
        <g transform="matrix(-0.215578,0.976487,0.976487,0.215578,460.005,335.788)">
            <path d="M-190.306,-152.875L122.806,-152.875" style="fill:none;fill-rule:nonzero;stroke:black;stroke-width:4px;"/>
        </g>
        <g transform="matrix(-0.215578,0.976487,0.976487,0.215578,445.505,335.788)">
            <path d="M-190.306,-152.875L122.806,-152.875" style="fill:none;fill-rule:nonzero;stroke:black;stroke-width:4px;"/>
        </g>
        <g transform="matrix(-0.215578,0.976487,0.976487,0.215578,431.005,335.788)">
            <path d="M-190.306,-152.875L122.806,-152.875" style="fill:none;fill-rule:nonzero;stroke:black;stroke-width:4px;"/>
        </g>
        <g transform="matrix(-0.215578,0.976487,0.976487,0.215578,532.005,335.788)">
            <path d="M-190.306,-152.875L122.806,-152.875" style="fill:none;fill-rule:nonzero;stroke:black;stroke-width:4px;"/>
        </g>
        <g transform="matrix(1,0,0,1,398.5,193.25)">
            <path d="M0,-27L-28.75,-27L-21.75,-59.5L-50.75,-59.5L-57.5,-27L-86.75,-27L-92.25,0.25L-63.75,0.25L-70.75,32.5L-42,32.5L-34.75,0.25L-6,0.25L0,-27Z" style="fill:white;fill-rule:nonzero;stroke:black;stroke-width:4px;"/>
        </g>
        <g transform="matrix(0.608645,0.793443,0.793443,-0.608645,95.2284,272.039)">
            <path d="M-28.854,-58.5L118.604,-58.5" style="fill:none;fill-rule:nonzero;stroke:black;stroke-width:4px;"/>
        </g>
        <g transform="matrix(-0.608645,-0.793443,-0.793443,0.608645,99.9784,251.289)">
            <path d="M-118.604,58.5L28.854,58.5" style="fill:none;fill-rule:nonzero;stroke:black;stroke-width:4px;"/>
        </g>
        <g transform="matrix(0.608215,0.793772,0.793772,-0.608215,74.6474,316.084)">
            <path d="M-23.753,-48.125L97.503,-48.125" style="fill:none;fill-rule:nonzero;stroke:black;stroke-width:4px;"/>
        </g>
        <g transform="matrix(1,0,0,1,116.5,305.75)">
            <path d="M0,117L0,116.75L-89.75,0" style="fill:none;fill-rule:nonzero;stroke:black;stroke-width:4px;"/>
        </g>
        <g transform="matrix(0.609465,0.792813,0.792813,-0.609465,90.5558,292.97)">
            <path d="M-28.755,-58.375L118.505,-58.375" style="fill:none;fill-rule:nonzero;stroke:black;stroke-width:4px;"/>
        </g>
        <g transform="matrix(-0.608645,-0.793443,-0.793443,0.608645,95.2284,272.039)">
            <path d="M-118.604,58.5L28.854,58.5" style="fill:none;fill-rule:nonzero;stroke:black;stroke-width:4px;"/>
        </g>
        <g transform="matrix(0.608645,0.793443,0.793443,-0.608645,99.9784,251.289)">
            <path d="M-28.854,-58.5L118.604,-58.5" style="fill:none;fill-rule:nonzero;stroke:black;stroke-width:4px;"/>
        </g>
        <g transform="matrix(-0.61053,-0.791993,-0.791993,0.61053,104.259,230.346)">
            <path d="M-118.706,58.375L28.706,58.375" style="fill:none;fill-rule:nonzero;stroke:black;stroke-width:4px;"/>
        </g>
        <g transform="matrix(0.61053,0.791993,0.791993,-0.61053,104.259,230.346)">
            <path d="M-28.706,-58.375L118.706,-58.375" style="fill:none;fill-rule:nonzero;stroke:black;stroke-width:4px;"/>
        </g>
        <g transform="matrix(-0.608645,-0.793443,-0.793443,0.608645,109.228,209.539)">
            <path d="M-118.604,58.5L28.854,58.5" style="fill:none;fill-rule:nonzero;stroke:black;stroke-width:4px;"/>
        </g>
        <g transform="matrix(0.609203,0.793014,0.793014,-0.609203,58.5194,339.005)">
            <path d="M-18.603,-37.75L76.603,-37.75" style="fill:none;fill-rule:nonzero;stroke:black;stroke-width:4px;"/>
        </g>
        <g transform="matrix(-0.608215,-0.793772,-0.793772,0.608215,74.6474,316.084)">
            <path d="M-97.503,48.125L23.753,48.125" style="fill:none;fill-rule:nonzero;stroke:black;stroke-width:4px;"/>
        </g>
        <g transform="matrix(0.6,0.8,0.8,-0.6,10.65,408.45)">
            <path d="M-3.25,-6.5L13,-6.5" style="fill:none;fill-rule:nonzero;stroke:black;stroke-width:4px;"/>
        </g>
        <g transform="matrix(-0.610278,-0.792187,-0.792187,0.610278,26.4346,385.278)">
            <path d="M-34.302,16.875L8.302,16.875" style="fill:none;fill-rule:nonzero;stroke:black;stroke-width:4px;"/>
        </g>
        <g transform="matrix(0.608126,0.793841,0.793841,-0.608126,42.5625,362.357)">
            <path d="M-13.452,-27.25L55.202,-27.25" style="fill:none;fill-rule:nonzero;stroke:black;stroke-width:4px;"/>
        </g>
        <g transform="matrix(-0.609203,-0.793014,-0.793014,0.609203,58.5194,339.005)">
            <path d="M-76.603,37.75L18.603,37.75" style="fill:none;fill-rule:nonzero;stroke:black;stroke-width:4px;"/>
        </g>
        <g transform="matrix(0.608645,0.793443,0.793443,-0.608645,109.228,209.539)">
            <path d="M-28.854,-58.5L118.604,-58.5" style="fill:none;fill-rule:nonzero;stroke:black;stroke-width:4px;"/>
        </g>
        <g transform="matrix(-0.608645,-0.793443,-0.793443,0.608645,113.978,188.789)">
            <path d="M-118.604,58.5L28.854,58.5" style="fill:none;fill-rule:nonzero;stroke:black;stroke-width:4px;"/>
        </g>
        <g transform="matrix(0.610278,0.792187,0.792187,-0.610278,26.4346,385.278)">
            <path d="M-8.302,-16.875L34.302,-16.875" style="fill:none;fill-rule:nonzero;stroke:black;stroke-width:4px;"/>
        </g>
        <g transform="matrix(-0.608126,-0.793841,-0.793841,0.608126,42.5625,362.357)">
            <path d="M-55.202,27.25L13.452,27.25" style="fill:none;fill-rule:nonzero;stroke:black;stroke-width:4px;"/>
        </g>
        <g transform="matrix(0.609084,0.793105,0.793105,-0.609084,150.569,108.655)">
            <path d="M-18.853,-38.25L77.603,-38.25" style="fill:none;fill-rule:nonzero;stroke:black;stroke-width:4px;"/>
        </g>
        <g transform="matrix(-0.610228,-0.792226,-0.792226,0.610228,159.816,110.882)">
            <path d="M-56.403,27.75L13.653,27.75" style="fill:none;fill-rule:nonzero;stroke:black;stroke-width:4px;"/>
        </g>
        <g transform="matrix(0.609026,0.79315,0.79315,-0.609026,178.404,115.474)">
            <path d="M-3.451,-7L14.201,-7" style="fill:none;fill-rule:nonzero;stroke:black;stroke-width:4px;"/>
        </g>
        <g transform="matrix(0.609415,0.792851,0.792851,-0.609415,141.4,106.359)">
            <path d="M-23.954,-48.625L98.704,-48.625" style="fill:none;fill-rule:nonzero;stroke:black;stroke-width:4px;"/>
        </g>
        <g transform="matrix(-0.609084,-0.793105,-0.793105,0.609084,150.569,108.655)">
            <path d="M-77.603,38.25L18.853,38.25" style="fill:none;fill-rule:nonzero;stroke:black;stroke-width:4px;"/>
        </g>
        <g transform="matrix(0.609986,0.792412,0.792412,-0.609986,168.985,113.178)">
            <path d="M-8.552,-17.375L35.302,-17.375" style="fill:none;fill-rule:nonzero;stroke:black;stroke-width:4px;"/>
        </g>
        <g transform="matrix(-0.609026,-0.79315,-0.79315,0.609026,178.404,115.474)">
            <path d="M-14.201,7L3.451,7" style="fill:none;fill-rule:nonzero;stroke:black;stroke-width:4px;"/>
        </g>
        <g transform="matrix(0.610228,0.792226,0.792226,-0.610228,159.816,110.882)">
            <path d="M-13.653,-27.75L56.403,-27.75" style="fill:none;fill-rule:nonzero;stroke:black;stroke-width:4px;"/>
        </g>
        <g transform="matrix(-0.609986,-0.792412,-0.792412,0.609986,168.985,113.178)">
            <path d="M-35.302,17.375L8.552,17.375" style="fill:none;fill-rule:nonzero;stroke:black;stroke-width:4px;"/>
        </g>
        <g transform="matrix(0.608645,0.793443,0.793443,-0.608645,123.228,147.039)">
            <path d="M-28.854,-58.5L118.604,-58.5" style="fill:none;fill-rule:nonzero;stroke:black;stroke-width:4px;"/>
        </g>
        <g transform="matrix(-0.609711,-0.792624,-0.792624,0.609711,127.682,126.164)">
            <path d="M-118.805,58.5L28.805,58.5" style="fill:none;fill-rule:nonzero;stroke:black;stroke-width:4px;"/>
        </g>
        <g transform="matrix(0.609465,0.792813,0.792813,-0.609465,118.306,167.97)">
            <path d="M-28.755,-58.375L118.505,-58.375" style="fill:none;fill-rule:nonzero;stroke:black;stroke-width:4px;"/>
        </g>
        <g transform="matrix(-0.608645,-0.793443,-0.793443,0.608645,123.228,147.039)">
            <path d="M-118.604,58.5L28.854,58.5" style="fill:none;fill-rule:nonzero;stroke:black;stroke-width:4px;"/>
        </g>
        <g transform="matrix(0.608645,0.793443,0.793443,-0.608645,113.978,188.789)">
            <path d="M-28.854,-58.5L118.604,-58.5" style="fill:none;fill-rule:nonzero;stroke:black;stroke-width:4px;"/>
        </g>
        <g transform="matrix(-0.609465,-0.792813,-0.792813,0.609465,118.306,167.97)">
            <path d="M-118.505,58.375L28.755,58.375" style="fill:none;fill-rule:nonzero;stroke:black;stroke-width:4px;"/>
        </g>
        <g transform="matrix(0.609711,0.792624,0.792624,-0.609711,127.682,126.164)">
            <path d="M-28.805,-58.5L118.805,-58.5" style="fill:none;fill-rule:nonzero;stroke:black;stroke-width:4px;"/>
        </g>
        <g transform="matrix(-0.609465,-0.792813,-0.792813,0.609465,132.306,105.47)">
            <path d="M-118.505,58.375L28.755,58.375" style="fill:none;fill-rule:nonzero;stroke:black;stroke-width:4px;"/>
        </g>
    </g>
</svg>
